<?xml version="1.0" encoding="utf-8"?>
<!-- Generator: Adobe Illustrator 21.1.0, SVG Export Plug-In . SVG Version: 6.00 Build 0)  -->
<svg version="1.1" id="EPS" xmlns="http://www.w3.org/2000/svg" xmlns:xlink="http://www.w3.org/1999/xlink" x="0px" y="0px"
	 viewBox="0 0 60 60" style="enable-background:new 0 0 60 60;" xml:space="preserve">
<g>
	<path d="M49.32,7.62c-0.42-0.09-7.44-1.76-12.4-2.94c-0.17-0.26-0.34-0.5-0.51-0.68c-1.3-1.44-2.53-2.46-6.41-2.48
		c-0.02,0-0.03,0-0.04,0c-3.98,0-6.26,2.36-6.35,2.46L23.59,4c-0.16,0.18-0.33,0.42-0.51,0.68C18.12,5.86,11.1,7.53,10.71,7.61
		C7.11,8.24,4.5,11.34,4.5,15v37.5c0,1.1,0.9,2,2,2h9.79c2.11,2.45,5.22,4,8.71,4h19.5c1.1,0,2-0.9,2-2v-2h7c1.1,0,2-0.9,2-2V15
		C55.5,11.34,52.89,8.24,49.32,7.62z M24.82,7.74c0.54-1.14,0.86-1.57,0.98-1.72c0.12-0.12,1.6-1.51,4.16-1.51c0.01,0,0.02,0,0.03,0
		c2.85,0.01,3.36,0.57,4.19,1.49c0.11,0.12,0.44,0.54,1,1.73c0.57,1.22,0.57,2.61-0.01,3.83L30,22.5l-5.17-10.92
		C24.25,10.36,24.25,8.96,24.82,7.74z M52.5,51.5h-6v-29c0-1.38-1.12-2.5-2.5-2.5c-0.28,0-0.5,0.22-0.5,0.5v26h-7
		c-0.28,0-0.5,0.22-0.5,0.5c0,1.38,1.12,2.5,2.5,2.5h5v6H25c-3.82,0-7.06-2.53-8.12-6h4.62c1.38,0,2.5-1.12,2.5-2.5
		c0-0.28-0.22-0.5-0.5-0.5h-7V20.55c0-0.28-0.22-0.5-0.5-0.5c-1.38,0-2.5,1.12-2.5,2.5V47v4.5h-6V15c0-2.19,1.56-4.06,3.72-4.43
		c0.28-0.05,6.07-1.43,10.34-2.44c-0.33,1.58-0.15,3.25,0.56,4.74L28.2,25.7c0.72,1.53,2.89,1.53,3.61,0l6.08-12.83
		c0.7-1.49,0.89-3.15,0.56-4.74c4.27,1.02,10.06,2.39,10.34,2.44c2.16,0.38,3.72,2.24,3.72,4.43v36.5H52.5z"/>
	<path d="M40,24.5h-4c-0.28,0-0.5,0.22-0.5,0.5v2c0,0.28,0.22,0.5,0.5,0.5h2c1.38,0,2.5-1.12,2.5-2.5C40.5,24.72,40.28,24.5,40,24.5
		z"/>
	<path d="M31,36h-2c-0.28,0-0.5,0.22-0.5,0.5v2c0,0.28,0.22,0.5,0.5,0.5h2c0.28,0,0.5-0.22,0.5-0.5v-2C31.5,36.22,31.28,36,31,36z"
		/>
	<path d="M31,43h-2c-0.28,0-0.5,0.22-0.5,0.5v2c0,0.28,0.22,0.5,0.5,0.5h2c0.28,0,0.5-0.22,0.5-0.5v-2C31.5,43.22,31.28,43,31,43z"
		/>
</g>
</svg>
