<?xml version="1.0" encoding="utf-8"?>
<!-- Generator: Adobe Illustrator 21.1.0, SVG Export Plug-In . SVG Version: 6.00 Build 0)  -->
<svg version="1.1" id="EPS" xmlns="http://www.w3.org/2000/svg" xmlns:xlink="http://www.w3.org/1999/xlink" x="0px" y="0px"
	 viewBox="0 0 60 60" style="enable-background:new 0 0 60 60;" xml:space="preserve">
<g>
	<path d="M51.01,17.94c0.02-0.31,0.04-0.62,0.04-0.94c0-5.7-3.67-10.47-8.65-11.39c-1.96-2.59-4.9-4.11-7.96-4.11
		c-1.72,0-3.09,0.5-4.06,1.48C30.23,3.12,30.12,3.29,30,3.45c-0.12-0.16-0.23-0.33-0.38-0.47C28.65,2,27.28,1.5,25.56,1.5
		c-3.07,0-6,1.52-7.96,4.11C12.62,6.53,8.94,11.3,8.94,17c0,0.32,0.02,0.63,0.04,0.94c-2.63,1.24-4.49,5-4.49,9.56
		c0,2.88,0.6,5.46,1.7,7.28c0.57,0.94,1.58,1.62,2.42,2.06c-0.27,0.95-0.56,2.2-0.56,3.16c0,4.8,3.24,8.76,7.43,9.4
		c1.13,5.22,5.21,9.1,10.07,9.1c1.72,0,3.09-0.5,4.06-1.48c0.14-0.14,0.25-0.31,0.38-0.47c0.12,0.16,0.23,0.33,0.38,0.47
		c0.98,0.98,2.34,1.48,4.06,1.48c4.86,0,8.94-3.88,10.07-9.1c4.19-0.64,7.43-4.6,7.43-9.4c0-0.96-0.29-2.22-0.56-3.16
		c0.84-0.44,1.85-1.12,2.42-2.06c1.09-1.81,1.7-4.4,1.7-7.28C55.5,22.93,53.64,19.17,51.01,17.94z M28.49,17.66
		c-1.68-1.71-3.93-2.85-6.45-3.1c-0.24-1.18-0.76-2.28-1.55-3.21c-0.18-0.22-0.52-0.22-0.73-0.02l-0.34,0.33
		c-0.72,0.71-0.95,1.78-0.56,2.72c0.21,0.51,0.32,1.06,0.32,1.63s-0.12,1.12-0.35,1.63c-0.41,0.93-0.2,2.01,0.51,2.73l0.33,0.34
		c0.2,0.2,0.54,0.21,0.73-0.01c0.79-0.9,1.33-1.97,1.59-3.12c3.61,0.49,6.42,3.55,6.49,7.28v21.65l-0.01,1.38
		c-0.01,0.88-0.01,1.73,0.01,2.55c-0.05,2.02-0.25,3.72-1,4.48c-0.15,0.15-0.59,0.59-1.94,0.59c-3.28,0-6.07-2.62-7.03-6.23
		c3.03-0.74,5.47-3.25,6.37-6.49c0.39-1.4-0.7-2.78-2.15-2.78l0,0c-0.27,0-0.48,0.21-0.49,0.48c-0.21,3.36-2.64,6.02-5.6,6.02
		c-3.09,0-5.61-2.92-5.61-6.5c0-0.87,0.49-2.61,0.81-3.51l0,0c0.27-0.79-0.14-1.65-0.93-1.91c-0.71-0.24-1.86-0.85-2.16-1.36
		c-0.8-1.33-1.26-3.42-1.26-5.72c0-2.96,0.98-5.36,2.13-6.42c1.49,4.33,5.27,7.42,9.7,7.42c0.98,0,1.78-0.8,1.78-1.78V26
		c0-0.28-0.22-0.5-0.5-0.5h-1.28c-4.07,0-7.39-3.81-7.39-8.5c0-4.35,2.93-8.09,6.67-8.51c0,0,0.56,0,0.69-0.08
		c0.13-0.08,0.39-0.58,0.39-0.58c1.4-2.09,3.59-3.33,5.87-3.33c1.34,0,1.79,0.45,1.94,0.59c0.75,0.76,0.96,2.46,1,4.48
		c-0.02,0.82-0.01,1.67-0.01,2.55L28.49,17.66z M51.24,33.23c-0.32,0.52-1.48,1.12-2.16,1.35c-0.79,0.27-1.21,1.13-0.93,1.91l0,0
		c0.31,0.89,0.8,2.63,0.8,3.5c0,3.58-2.52,6.5-5.61,6.5c-2.51,0-4.65-1.93-5.36-4.57c-0.3-1.12-1.25-1.93-2.41-1.93h-0.33
		c-0.28,0-0.52,0.24-0.51,0.52c0.21,4.3,3.03,7.84,6.74,8.75c-0.96,3.61-3.75,6.23-7.03,6.23c-1.34,0-1.79-0.45-1.94-0.59
		c-0.75-0.76-0.96-2.46-1.01-4.49c0.02-0.81,0.01-1.66,0.01-2.54V13.5l0.01-1.38c0.01-0.88,0.01-1.73-0.01-2.54
		c0.05-2.02,0.25-3.72,1.01-4.49c0.15-0.15,0.59-0.59,1.94-0.59c2.28,0,4.47,1.25,5.87,3.33c0,0,0.19,0.45,0.39,0.58
		s0.69,0.08,0.69,0.08c3.74,0.42,6.67,4.16,6.67,8.51c0,4.69-3.32,8.5-7.39,8.5H39.4c-0.28,0-0.5,0.22-0.5,0.5v0.72
		c0,0.98,0.8,1.78,1.78,1.78c4.43,0,8.21-3.09,9.7-7.42c1.16,1.06,2.13,3.46,2.13,6.42C52.5,29.81,52.04,31.89,51.24,33.23z"/>
	<path d="M35.56,20.87c0.88,0.11,1.79-0.2,2.3-0.93c0.15-0.21,0.33-0.4,0.54-0.56c0.44-0.34,0.97-0.53,1.51-0.54
		c0.05,0,0.1-0.02,0.14-0.03c0.57,0.47,1.17,0.91,1.85,1.26c0.25,0.13,0.57,0.02,0.71-0.29l0.1-0.22c0.49-1.06,0.14-2.28-0.75-3.03
		c-1.35-1.13-2.27-2.7-2.59-4.44c-0.21-1.15-1.1-2.05-2.27-2.14l-0.3-0.03c-0.28-0.02-0.54,0.19-0.55,0.48
		c-0.07,2.12,0.52,4.16,1.6,5.89c-0.45,0.19-0.88,0.41-1.28,0.72c-1.05,0.81-1.76,1.93-2.05,3.2c-0.06,0.28,0.15,0.55,0.43,0.58
		L35.56,20.87z"/>
	<path d="M39.5,33.5c-0.87,0-1.83-1.26-1.98-3.02C37.5,30.21,37.29,30,37.01,30h-0.03c-1.47,0-2.51,1.47-2,2.85
		c0.8,2.18,2.5,3.65,4.51,3.65c0.87,0,1.83,1.26,1.98,3.02c0.03,0.27,0.24,0.48,0.7,0.48l0,0c1.46,0,2.39-1.17,1.94-2.55
		C43.36,35.11,41.6,33.5,39.5,33.5z"/>
	<path d="M15.99,37.15c-0.51,1.38,0.53,2.85,2,2.85h0.03c0.27,0,0.48-0.21,0.5-0.48c0.15-1.76,1.11-3.02,1.98-3.02
		c2.01,0,3.71-1.47,4.51-3.65c0.51-1.38-0.53-2.85-2-2.85h-0.03c-0.27,0-0.48,0.21-0.5,0.48c-0.15,1.76-1.11,3.02-1.98,3.02
		C18.49,33.5,16.79,34.97,15.99,37.15z"/>
</g>
</svg>
