<?xml version="1.0" encoding="utf-8"?>
<!-- Generator: Adobe Illustrator 21.1.0, SVG Export Plug-In . SVG Version: 6.00 Build 0)  -->
<svg version="1.1" id="EPS_3" xmlns="http://www.w3.org/2000/svg" xmlns:xlink="http://www.w3.org/1999/xlink" x="0px" y="0px"
	 viewBox="0 0 60 60" style="enable-background:new 0 0 60 60;" xml:space="preserve">
<g>
	<path d="M46.54,34.54V13.46c0-1.1-0.9-2-2-2H3.46c-1.1,0-2,0.9-2,2V25c0,6.37,5.16,11.54,11.54,11.54h31.54
		C45.64,36.54,46.54,35.64,46.54,34.54z M31.77,33.46H13c-4.67,0-8.46-3.8-8.46-8.46V14.54h27.23V33.46z M43.46,33.46H34.9V14.54
		h8.57v18.92H43.46z"/>
	<path d="M6.77,25.76c0.26,0.11,0.57,0.2,0.94,0.26c0.36,0.06,0.77,0.09,1.2,0.09c1.15,0,2.06-0.3,2.75-0.91
		c0.69-0.61,1.03-1.42,1.03-2.44c0-0.86-0.25-1.54-0.73-2.04c-0.49-0.5-1.16-0.76-2-0.76c-0.23,0-0.45,0.02-0.66,0.05
		c-0.21,0.03-0.38,0.08-0.53,0.13H8.7l0.21-2.25h3.14c0.07,0,0.13-0.02,0.18-0.06s0.06-0.1,0.06-0.18v-1.13
		c0-0.07-0.02-0.13-0.06-0.18s-0.1-0.06-0.18-0.06H7.57c-0.07,0-0.13,0.02-0.17,0.06s-0.06,0.1-0.06,0.16L6.9,21.14
		c-0.01,0.06,0,0.11,0.01,0.15c0.02,0.05,0.05,0.09,0.1,0.14l0.2,0.2c0.05,0.05,0.1,0.07,0.15,0.08s0.11,0,0.17-0.01
		c0.23-0.09,0.46-0.16,0.69-0.2c0.23-0.04,0.5-0.06,0.82-0.06c0.52,0,0.93,0.13,1.23,0.38s0.45,0.59,0.45,1.02
		c0,0.51-0.17,0.9-0.5,1.17s-0.81,0.4-1.45,0.4c-0.3,0-0.58-0.03-0.85-0.08S7.41,24.2,7.19,24.1c-0.08-0.04-0.15-0.04-0.2-0.01
		s-0.09,0.09-0.1,0.17l-0.27,1.2C6.6,25.54,6.6,25.6,6.63,25.65C6.66,25.7,6.7,25.74,6.77,25.76z"/>
	<path d="M17.65,26.11c1.11,0,1.99-0.44,2.65-1.32s0.98-2.1,0.98-3.68s-0.33-2.8-0.98-3.68c-0.65-0.88-1.54-1.32-2.65-1.32
		c-1.12,0-2.01,0.44-2.66,1.32s-0.98,2.1-0.98,3.68s0.33,2.8,0.98,3.68S16.53,26.11,17.65,26.11z M16.4,18.62
		c0.29-0.56,0.7-0.85,1.25-0.85c0.54,0,0.95,0.28,1.24,0.85c0.28,0.56,0.43,1.39,0.43,2.48c0,1.08-0.14,1.9-0.43,2.46
		c-0.28,0.56-0.7,0.83-1.24,0.83c-0.54,0-0.96-0.28-1.25-0.84s-0.43-1.38-0.43-2.45C15.97,20.02,16.11,19.19,16.4,18.62z"/>
	<path d="M52.5,40.5v-17c0-1.38-1.12-2.5-2.5-2.5c-0.28,0-0.5,0.22-0.5,0.5v18h-35c-0.28,0-0.5,0.22-0.5,0.5
		c0,1.38,1.12,2.5,2.5,2.5h34C51.6,42.5,52.5,41.6,52.5,40.5z"/>
	<path d="M56,28c-0.28,0-0.5,0.22-0.5,0.5v17h-34c-0.28,0-0.5,0.22-0.5,0.5c0,1.38,1.12,2.5,2.5,2.5h33c1.1,0,2-0.9,2-2v-16
		C58.5,29.12,57.38,28,56,28z"/>
</g>
</svg>
