<?xml version="1.0" encoding="utf-8"?>
<!-- Generator: Adobe Illustrator 21.1.0, SVG Export Plug-In . SVG Version: 6.00 Build 0)  -->
<svg version="1.1" id="EPS" xmlns="http://www.w3.org/2000/svg" xmlns:xlink="http://www.w3.org/1999/xlink" x="0px" y="0px"
	 viewBox="0 0 60 60" style="enable-background:new 0 0 60 60;" xml:space="preserve">
<g>
	<path d="M49.84509,22.74091c-0.43488-1.04108-0.95508-2.03693-1.54138-2.98792c1.91028-3.2453,3.34161-9.34058,0.33887-11.46002
		c-2.65479-1.87634-7.0827,0.56396-9.74371,3.15094C36.18463,10.20294,33.17487,9.5,30,9.5s-6.18469,0.70294-8.89905,1.94403
		c-2.66046-2.58673-7.0871-5.02545-9.74353-3.15106c-3.00165,2.11932-1.57111,8.21393,0.33936,11.45935
		c-0.58649,0.95123-1.10681,1.94727-1.54181,2.98859C5.06488,24.99396,1.5,30.08508,1.5,36c0,7.99512,6.50488,14.5,14.5,14.5
		c1.34442,0,2.64099-0.19818,3.87732-0.54224C22.89636,51.57635,26.34143,52.5,30,52.5c3.65869,0,7.10382-0.92365,10.12286-2.54224
		C41.35913,50.30176,42.65564,50.5,44,50.5c7.99512,0,14.5-6.50488,14.5-14.5C58.5,30.08508,54.93518,24.99402,49.84509,22.74091z
		 M44,47.5c-1.19641,0-2.34802-0.18927-3.43243-0.5321c-0.55379-0.17508-1.14977-0.06174-1.65815,0.21912
		c-1.69238,0.935-3.54498,1.61145-5.50432,1.98297c-0.07532,0.01447-0.15088,0.02771-0.2265,0.04126
		c-0.42194,0.07446-0.84839,0.13391-1.27972,0.17883c-0.11328,0.01208-0.22546,0.02704-0.33936,0.03699
		C31.04486,49.47095,30.52606,49.5,30,49.5s-1.04486-0.02905-1.55945-0.07294c-0.11401-0.01001-0.22638-0.0249-0.33972-0.03699
		c-0.43115-0.04492-0.85742-0.10437-1.27924-0.17883c-0.07574-0.01361-0.15143-0.02679-0.22693-0.04132
		c-1.95927-0.37152-3.81174-1.0479-5.50405-1.98289c-0.50839-0.28088-1.10438-0.39422-1.65818-0.21914
		C18.34802,47.31073,17.19641,47.5,16,47.5c-5.15228,0-9.52386-3.40582-10.98212-8.08411C4.6814,38.3363,4.5,37.1889,4.5,36
		c0-0.40924,0.02899-0.81128,0.07092-1.20959c0.01105-0.10461,0.02466-0.20807,0.03851-0.31183
		c0.04541-0.34113,0.10413-0.67761,0.17889-1.00861c0.01245-0.05518,0.02124-0.11169,0.03455-0.16656
		c0.09381-0.38843,0.20953-0.7677,0.3418-1.13965c0.02301-0.06445,0.04895-0.12714,0.073-0.19104
		c0.12433-0.33081,0.26288-0.65399,0.41608-0.9696c0.02301-0.04724,0.04413-0.0954,0.06775-0.14233
		c0.36816-0.7326,0.81354-1.41827,1.32343-2.05133c0.02173-0.02692,0.04303-0.05408,0.065-0.08081
		c0.52112-0.63538,1.10791-1.21307,1.75153-1.72443c0.01019-0.00812,0.01904-0.01776,0.0293-0.02582
		c-0.00018,0.0011-0.00031,0.00232-0.00049,0.00342c0.85719-0.6767,1.80925-1.23847,2.83633-1.65338
		c0.48396-0.1955,0.8829-0.55314,1.07985-1.03651c0.20613-0.50591,0.45595-1.1108,0.54468-1.29176
		c0.22711-0.46317,0.47277-0.91569,0.73427-1.35789c-0.00598,0.00079-0.01208,0.00116-0.01807,0.00195
		c0.07434-0.1261,0.15698-0.24658,0.23462-0.37048c0.07874-0.12646,0.15704-0.25275,0.23877-0.37714l0.00015-0.00023
		c0.41954-0.63065,0.38227-1.46266-0.09739-2.04889c-0.21663-0.26476-0.40205-0.49842-0.44584-0.57427
		c-0.24312-0.42112-0.46326-0.88316-0.65907-1.36435c-0.02582-0.06335-0.05231-0.12579-0.07721-0.18982
		c-0.04504-0.11578-0.08734-0.23248-0.12933-0.35004c-0.02594-0.07251-0.05145-0.1449-0.07617-0.2179
		c-0.03925-0.11609-0.07727-0.23187-0.11346-0.34875c-0.02319-0.07489-0.04486-0.1496-0.06677-0.22461
		c-0.03418-0.11713-0.06848-0.23376-0.09949-0.35089c-0.0191-0.07214-0.03552-0.14374-0.05334-0.21576
		c-0.05029-0.20294-0.09552-0.40387-0.13556-0.60364c-0.01825-0.0907-0.0376-0.18176-0.05365-0.27142
		c-0.01727-0.09668-0.03119-0.1908-0.0459-0.28595c-0.0144-0.0932-0.02856-0.18585-0.04047-0.27728
		c-0.01172-0.09015-0.02167-0.17847-0.03088-0.26666c-0.01007-0.09613-0.01825-0.19025-0.02527-0.28369
		c-0.00592-0.0791-0.01202-0.15784-0.01575-0.23468c-0.00525-0.10748-0.00665-0.21082-0.00751-0.31354
		c-0.00043-0.05865-0.00299-0.11938-0.00195-0.17633c0.00269-0.15302,0.0108-0.2995,0.02435-0.4386
		c0.00415-0.04236,0.01147-0.08008,0.01666-0.12097c0.01245-0.09875,0.02673-0.1947,0.04529-0.28455
		c0.00964-0.04663,0.02155-0.08948,0.03284-0.13348c0.0199-0.07733,0.04199-0.15076,0.06714-0.21967
		c0.01453-0.03979,0.02948-0.07855,0.04578-0.1153c0.02966-0.06708,0.06342-0.12701,0.09912-0.18353
		c0.01697-0.02686,0.03247-0.05627,0.05084-0.08063c0.05676-0.0752,0.11841-0.14136,0.18866-0.19092
		c0.16992-0.12061,0.40234-0.17627,0.67871-0.17627l0.00043,0.00006l0.00055-0.00006c0.18964,0,0.40601,0.03473,0.633,0.08453
		c0.06842,0.01489,0.13849,0.03381,0.20978,0.05286c0.1723,0.04639,0.35114,0.10455,0.53723,0.17389
		c0.08093,0.02997,0.15796,0.05469,0.24109,0.08868c0.22906,0.09436,0.46472,0.20306,0.70532,0.32568
		c0.15576,0.07874,0.31201,0.16815,0.47034,0.25739c0.0918,0.05206,0.1828,0.10388,0.27496,0.15924
		c0.79951,0.47677,1.60676,1.06811,2.30862,1.71528c0.16129,0.14872,0.37128,0.3819,0.58512,0.63512
		c0.59824,0.70843,1.60301,0.92237,2.43156,0.5061c0.19142-0.09617,0.34651-0.1723,0.42177-0.2066
		c0.11707-0.0531,0.23206-0.10986,0.3504-0.16058c0.07806-0.03339,0.15228-0.07367,0.23102-0.1059
		c0.12695-0.05219,0.26111-0.08942,0.38947-0.13885c0.30096-0.11639,0.60535-0.22485,0.91357-0.32574
		c0.17993-0.05865,0.35834-0.11945,0.54065-0.17273c0.47321-0.13885,0.953-0.26166,1.44104-0.36255
		c0.11615-0.02393,0.23474-0.03992,0.35168-0.06165c0.41699-0.07776,0.83868-0.14075,1.26508-0.18958
		c0.15161-0.01727,0.3028-0.03424,0.45551-0.04779C28.91003,12.53296,29.45087,12.5,30,12.5
		c0.54919,0,1.09009,0.03302,1.62677,0.08087c0.15247,0.01355,0.30347,0.0304,0.45483,0.04767
		c0.42651,0.04889,0.84845,0.11188,1.26556,0.18964c0.11682,0.02167,0.23523,0.03766,0.35126,0.06158
		c0.48846,0.10095,0.96863,0.22388,1.4422,0.36279c0.18127,0.05298,0.35876,0.11353,0.53772,0.17181
		c0.30914,0.1012,0.61444,0.2099,0.91626,0.32666c0.12793,0.04932,0.26172,0.08643,0.38831,0.13843
		c0.07874,0.03223,0.15295,0.07245,0.23102,0.10583c0.1189,0.0509,0.23431,0.10791,0.35193,0.16125
		c0.07499,0.03415,0.22974,0.11011,0.42095,0.20617c0.82866,0.41633,1.83334,0.20202,2.43162-0.50655
		c0.21257-0.25176,0.42115-0.48341,0.58142-0.63131c0.70388-0.64954,1.51405-1.24298,2.31626-1.72097
		c0.08856-0.05316,0.17603-0.10291,0.26428-0.15302c0.16193-0.09131,0.32166-0.18262,0.48083-0.263
		c0.2381-0.12122,0.47156-0.22882,0.69836-0.32245c0.08655-0.0354,0.16681-0.06134,0.2511-0.09235
		c0.1825-0.06787,0.35797-0.12494,0.52716-0.17065c0.07306-0.01959,0.1449-0.039,0.21497-0.0542
		c0.22662-0.04968,0.44263-0.08423,0.63196-0.08423c0.27637,0,0.50879,0.05566,0.67871,0.17627
		c0.07031,0.04962,0.13202,0.11584,0.18884,0.1911c0.01813,0.02405,0.03339,0.0531,0.05023,0.07965
		c0.03613,0.05695,0.07001,0.11743,0.09998,0.18512c0.01599,0.03613,0.03058,0.07404,0.04486,0.11298
		c0.0257,0.07025,0.0484,0.1452,0.0686,0.2243c0.0108,0.04224,0.02216,0.08337,0.03143,0.12799
		c0.01935,0.09326,0.03436,0.19275,0.04712,0.29565c0.00464,0.03735,0.01135,0.07159,0.01514,0.11017
		c0.01385,0.14087,0.02197,0.28925,0.02466,0.44434c0.00092,0.04968-0.00146,0.10291-0.00171,0.15393
		c-0.00055,0.1106-0.00238,0.22229-0.00812,0.33844c-0.00348,0.0705-0.00903,0.14282-0.01434,0.21521
		c-0.00751,0.10144-0.01642,0.20392-0.02753,0.30859c-0.00854,0.0813-0.01776,0.1626-0.0285,0.24561
		c-0.01306,0.10089-0.02856,0.20319-0.04468,0.30621c-0.01343,0.08624-0.02594,0.17145-0.0415,0.25891
		c-0.02026,0.11346-0.04425,0.22852-0.06793,0.34363c-0.03131,0.15216-0.06567,0.30469-0.10291,0.45868
		c-0.02472,0.10229-0.04865,0.20435-0.07593,0.30695c-0.02765,0.10406-0.05823,0.20758-0.08838,0.31165
		c-0.02588,0.08936-0.05176,0.17847-0.07953,0.26758c-0.03302,0.1062-0.06757,0.2113-0.10309,0.31683
		c-0.02917,0.08655-0.05939,0.17224-0.09021,0.25812c-0.03778,0.10529-0.07568,0.20996-0.11591,0.31384
		c-0.03296,0.08514-0.06812,0.1684-0.10266,0.25232c-0.28735,0.69769-0.62579,1.35364-1.01154,1.90033l-0.0092,0.01298
		c-0.47676,0.67229-0.48797,1.56925-0.02987,2.2544c0.17652,0.26401,0.31658,0.47555,0.34187,0.51846
		c-0.00598-0.00079-0.01208-0.00116-0.01807-0.00195c0.49527,0.83753,0.93377,1.71214,1.29686,2.62591
		c0.19476,0.49016,0.58087,0.86544,1.06976,1.06337c1.02406,0.4146,1.97348,0.9752,2.82851,1.65019
		c-0.00018-0.0011-0.00031-0.00214-0.00049-0.00323c0.00983,0.00775,0.01831,0.01703,0.02808,0.02478
		c0.64429,0.51178,1.23163,1.09003,1.75317,1.72595c0.02167,0.02643,0.04272,0.05316,0.06415,0.07971
		c0.51019,0.63348,0.95587,1.31952,1.32422,2.05255c0.02332,0.04633,0.04413,0.09381,0.06683,0.1405
		c0.1535,0.3161,0.29236,0.63995,0.41687,0.97131c0.02393,0.06366,0.0498,0.12604,0.07269,0.19019
		c0.1322,0.37207,0.24805,0.75146,0.34186,1.13995c0.01331,0.05487,0.02197,0.11133,0.03448,0.1665
		c0.07471,0.33105,0.13354,0.66754,0.17896,1.00867c0.01385,0.10376,0.02747,0.20715,0.03851,0.31177
		C55.47101,35.18872,55.5,35.59076,55.5,36C55.5,42.34082,50.34082,47.5,44,47.5z"/>
	<path d="M23,26.5c1.10455,0,2-0.89545,2-2c0-1.10461-0.39545-1.5-1.5-1.5S21,23.39539,21,24.5C21,25.60455,21.89545,26.5,23,26.5z"
		/>
	<path d="M36.5,23c-1.10455,0-1.5,0.39539-1.5,1.5c0,1.10455,0.89545,2,2,2s2-0.89545,2-2C39,23.39539,37.60455,23,36.5,23z"/>
	<path d="M14.70605,31.00879c-0.7608-0.30829-1.54926-0.47687-2.33679-0.50623c-1.51654-0.05658-2.56635,1.50616-1.94879,2.8924
		c0.10693,0.24011,0.37616,0.33972,0.62775,0.26367c0.81989-0.24768,1.70117-0.20551,2.52991,0.12946
		c0.99609,0.4043,1.79199,1.18164,2.24023,2.18945c0.44824,1.00684,0.49414,2.11816,0.12793,3.12891
		c-0.30804,0.84875-0.87646,1.53967-1.62299,1.98291c-0.22015,0.13074-0.29083,0.41821-0.18665,0.65204
		c0.5957,1.33734,2.40234,1.66333,3.36151,0.55731c0.54358-0.62677,0.97406-1.35864,1.26843-2.17078
		c0.63184-1.74414,0.55859-3.65137-0.20801-5.37109C17.79297,33.03711,16.4248,31.70605,14.70605,31.00879z"/>
	<path d="M47.63074,30.50256c-0.78754,0.02936-1.57599,0.19794-2.33679,0.50623c-1.71875,0.69727-3.08691,2.02832-3.85254,3.74805
		c-0.7666,1.71973-0.83984,3.62695-0.20801,5.37109c0.29437,0.81213,0.72485,1.54401,1.26843,2.17078
		c0.95917,1.10602,2.76581,0.78003,3.36151-0.55731c0.10419-0.23383,0.03351-0.5213-0.18665-0.65204
		c-0.74652-0.44324-1.31494-1.13416-1.62299-1.98291c-0.36621-1.01074-0.32031-2.12207,0.12793-3.12891
		c0.44824-1.00781,1.24414-1.78516,2.24023-2.18945c0.82874-0.33496,1.71002-0.37714,2.52991-0.12946
		c0.25159,0.07605,0.52081-0.02356,0.62775-0.26367C50.19708,32.00873,49.14728,30.44598,47.63074,30.50256z"/>
	<path d="M38.21936,37.43622l-0.4754-0.27484c-0.77386-0.44745-1.72412-0.44061-2.49908,0.00494
		C34.8714,37.38104,34.44312,37.5,34,37.5c-1.14441,0-2.10077-0.77661-2.39655-1.82758l3.04596-2.28448
		c0.54449-0.40839,0.84387-1.06726,0.79504-1.74622c-0.01996-0.27783-0.04517-0.52917-0.0755-0.6424
		C34.8269,28.97302,32.66235,27.5,30,27.5s-4.8269,1.47302-5.36896,3.49933c-0.03033,0.11322-0.05554,0.36456-0.0755,0.6424
		c-0.04883,0.67896,0.25055,1.33783,0.79504,1.74622l3.0459,2.28442C28.10059,36.72327,27.14398,37.5,26,37.5
		c-0.44312,0-0.87146-0.11896-1.24506-0.33374c-0.77502-0.44556-1.72473-0.45264-2.49854-0.005l-0.56299,0.32562
		c-0.24811,0.14349-0.33728,0.47449-0.17053,0.70764C22.45203,39.49329,23.91132,40.323,25.5,40.4696V43.5c0,1.10455,0.89545,2,2,2
		h5c1.10455,0,2-0.89545,2-2v-3.03046c1.58893-0.14667,3.04822-0.97693,3.97736-2.27496
		C38.64423,37.96143,38.55762,37.63184,38.21936,37.43622z M30,30.5c1.04004,0,1.88867,0.41846,2.27539,0.91895L30,33.125
		l-2.2749-1.70605C28.11133,30.91846,28.95996,30.5,30,30.5z M28.5,42.5v-2.60724c0.56366-0.28925,1.0697-0.67255,1.5-1.1297
		c0.4303,0.45715,0.93634,0.84045,1.5,1.1297V42.5H28.5z"/>
</g>
</svg>
