<?xml version="1.0" encoding="utf-8"?>
<!-- Generator: Adobe Illustrator 21.1.0, SVG Export Plug-In . SVG Version: 6.00 Build 0)  -->
<svg version="1.1" id="Ebene_1" xmlns="http://www.w3.org/2000/svg" xmlns:xlink="http://www.w3.org/1999/xlink" x="0px" y="0px"
	 viewBox="0 0 60 60" style="enable-background:new 0 0 60 60;" xml:space="preserve">
<g id="EPS">
</g>
<g id="EPS_Kopie">
	<g>
		<path d="M50.5,1.5h-41c-1.1,0-2,0.9-2,2v19.27c0,6.35,5.15,11.5,11.5,11.5h30.5V54.5c0,1.38,1.12,2.5,2.5,2.5
			c0.28,0,0.5-0.22,0.5-0.5V34.27V34V3.5C52.5,2.4,51.6,1.5,50.5,1.5z M10.81,25H16v-7h-5.5v-7H16V4.5h7V11h7V4.5h7V11h7V4.5h5.5V11
			H44v7h5.5v7H44v6.27h-7V25h-7v6.27h-7V25h-7v5.71C13.47,29.76,11.52,27.63,10.81,25z"/>
		<rect x="37" y="18" width="7" height="7"/>
		<rect x="23" y="18" width="7" height="7"/>
		<rect x="30" y="11" width="7" height="7"/>
		<rect x="16" y="11" width="7" height="7"/>
	</g>
</g>
</svg>
